# xmcd
#
# Track frame offsets: 
#        150
#        20337
#        45362
#        59080
#        83730
#        109840
#        129277
#        161562
#        181727
#        208882
#        235882
#        266540
#        287675
#        317715
#
# Disc length: 4476 seconds
#
# Revision: 2
# Processed by: cddbd v1.5.1PL0 Copyright (c) Steve Scherf et al.
# Submitted via: ExactAudioCopy v0.95a3
#
DISCID=bd117a0e
DTITLE=Various Artist - Music For Modern Living - Seven
DYEAR=2003
DGENRE=Ambient
TTITLE0=Folke Jensen - Barabajagal
TTITLE1=Cubismo Grafico - Out of this (Control)
TTITLE2=Glen Campbell - Wichita Lineman
TTITLE3=Rollin Hand - Focus Pocus
TTITLE4=Physics - Flying Away
TTITLE5=Urbs and Cutex - Up and Down
TTITLE6=Lucky Loop - Better Days
TTITLE7=Zimpala - The Breeze is black (Bobby Hughes Remix)
TTITLE8=Deela - African Chant
TTITLE9=Timax - Azucar Morena
TTITLE10=Rivera Rotation - Moment in Paris (Soul-o-Matic Remix)
TTITLE11=Visitors of Venus - The Synthex Fly
TTITLE12=Momix and Low P - Merry XMas Mr. Lawrence (Version 2003)
TTITLE13=Sidsel Endersen and Bugge Wesseltoft - Try
EXTD=
EXTT0=
EXTT1=
EXTT2=
EXTT3=
EXTT4=
EXTT5=
EXTT6=
EXTT7=
EXTT8=
EXTT9=
EXTT10=
EXTT11=
EXTT12=
EXTT13=
PLAYORDER=
